<?xml version="1.0" encoding="UTF-8" standalone="no"?>
<!-- Created with Inkscape (http://www.inkscape.org/) -->

<svg
   width="210mm"
   height="297mm"
   viewBox="0 0 210 297"
   version="1.1"
   id="svg1"
   xmlns="http://www.w3.org/2000/svg"
   xmlns:svg="http://www.w3.org/2000/svg">
  <defs
     id="defs1" />
  <g
     id="layer1">
    <g
       id="g22">
      <path
         id="path22"
         style="fill:#872a2a;fill-opacity:1;stroke:#510909;stroke-width:2.421;stroke-dasharray:none;stroke-opacity:1"
         d="m 109.48599,131.36943 v 65.94843 c 21.38297,-13.32556 55.2133,-11.72223 62.29353,-11.66506 l 0.69656,-68.69782 c -23.37493,-1.00821 -59.58956,11.08694 -62.99009,14.41445 z" />
      <path
         id="path13"
         style="fill:#bfb988;fill-opacity:1;stroke:#ab9d25;stroke-width:0.921023;stroke-opacity:1"
         d="m 151.73079,117.7587 c -13.32337,-0.1425 -31.02276,2.39851 -42.99479,14.65596 v 65.94843 c 19.22431,-19.80154 53.23605,-15.81264 60.11261,-14.55157 l 0.0351,-64.42036 c -2.5941,-0.47572 -9.06617,-1.54596 -17.15296,-1.63246 z" />
      <path
         id="path14"
         style="fill:#bfb988;fill-opacity:1;stroke:#ab9d25;stroke-width:0.921023;stroke-opacity:1"
         d="m 157.40641,113.76825 c -11.34175,-0.19123 -33.12799,2.60633 -48.67041,18.63917 v 65.95102 c 19.16145,-19.82754 47.87602,-18.30596 54.75221,-17.04496 l -0.0698,-67.05689 c -1.29705,-0.23786 -3.3712,-0.44381 -6.01204,-0.48834 z" />
      <path
         id="path15"
         style="fill:#909090;fill-opacity:1;stroke:#000000;stroke-width:0.921023"
         d="m 157.82892,161.79502 v 0 m 0,-37.82191 v 0" />
      <path
         id="path16"
         style="fill:#bfb988;fill-opacity:1;stroke:#ab9d25;stroke-width:0.921023;stroke-opacity:1"
         d="m 154.11721,110.14315 c -9.22785,0.0999 -28.70803,4.93531 -45.38121,22.25755 v 65.95153 c 19.08865,-19.88353 41.78066,-23.29524 48.65646,-22.03431 l 0.0357,-65.94688 c -0.8647,-0.15857 -1.98155,-0.24229 -3.31091,-0.22789 z" />
    </g>
    <g
       id="g27"
       transform="matrix(-1,0,0,1,216.55098,-8.3257857e-4)">
      <path
         id="path23"
         style="fill:#872a2a;fill-opacity:1;stroke:#510909;stroke-width:2.421;stroke-dasharray:none;stroke-opacity:1"
         d="m 109.48599,131.36943 v 65.94843 c 21.38297,-13.32556 55.2133,-11.72223 62.29353,-11.66506 l 0.69656,-68.69782 c -23.37493,-1.00821 -59.58956,11.08694 -62.99009,14.41445 z" />
      <path
         id="path24"
         style="fill:#bfb988;fill-opacity:1;stroke:#ab9d25;stroke-width:0.921023;stroke-opacity:1"
         d="m 151.73079,117.7587 c -13.32337,-0.1425 -31.02276,2.39851 -42.99479,14.65596 v 65.94843 c 19.22431,-19.80154 53.23605,-15.81264 60.11261,-14.55157 l 0.0351,-64.42036 c -2.5941,-0.47572 -9.06617,-1.54596 -17.15296,-1.63246 z" />
      <path
         id="path25"
         style="fill:#bfb988;fill-opacity:1;stroke:#ab9d25;stroke-width:0.921023;stroke-opacity:1"
         d="m 157.40641,113.76825 c -11.34175,-0.19123 -33.12799,2.60633 -48.67041,18.63917 v 65.95102 c 19.16145,-19.82754 47.87602,-18.30596 54.75221,-17.04496 l -0.0698,-67.05689 c -1.29705,-0.23786 -3.3712,-0.44381 -6.01204,-0.48834 z" />
      <path
         id="path26"
         style="fill:#909090;fill-opacity:1;stroke:#000000;stroke-width:0.921023"
         d="m 157.82892,161.79502 v 0 m 0,-37.82191 v 0" />
      <path
         id="path27"
         style="fill:#bfb988;fill-opacity:1;stroke:#ab9d25;stroke-width:0.921023;stroke-opacity:1"
         d="m 154.11721,110.14315 c -9.22785,0.0999 -28.70803,4.93531 -45.38121,22.25755 v 65.95153 c 19.08865,-19.88353 41.78066,-23.29524 48.65646,-22.03431 l 0.0357,-65.94688 c -0.8647,-0.15857 -1.98155,-0.24229 -3.31091,-0.22789 z" />
    </g>
    <path
       style="fill:none;fill-opacity:1;stroke:#580e20;stroke-width:2.421;stroke-dasharray:none;stroke-opacity:1"
       d="m 108.48877,190.44685 c 10.93599,-22.87888 14.43954,-46.90122 33.0986,-68.59194 -24.45345,17.2139 -48.42613,35.12711 -76.289276,47.38146 28.66088,-2.29628 56.595976,-2.56035 83.644526,-0.34211 -26.20934,-13.22904 -47.93339,-29.26139 -69.053931,-45.67093 z"
       id="path30" />
  </g>
</svg>
